<svg width="36" height="30" viewBox="0 0 36 30" fill="none" xmlns="http://www.w3.org/2000/svg">
<path d="M29.1277 21.1404H12.9965C12.3928 21.1404 11.8601 20.7394 11.6835 20.1522L6.46248 2.79276H1.87303C1.11472 2.79276 0.5 2.16758 0.5 1.39638C0.5 0.625179 1.11472 0 1.87303 0H7.47852C8.08226 0 8.61499 0.400961 8.79153 0.987839L14.0126 18.3476H28.2152L32.3676 8.29729H18.1532C17.3949 8.29729 16.7802 7.67211 16.7802 6.90091C16.7802 6.12971 17.3949 5.50453 18.1532 5.50453H34.4334C34.8932 5.50453 35.3228 5.73872 35.577 6.12811C35.8312 6.5175 35.8775 7.01062 35.6994 7.44191L30.3932 20.285C30.179 20.8033 29.6804 21.1404 29.1277 21.1404Z" fill="#93D94E"/>
<path d="M11.8294 29.7165C13.164 29.7165 14.2459 28.6162 14.2459 27.2589C14.2459 25.9016 13.164 24.8013 11.8294 24.8013C10.4948 24.8013 9.41284 25.9016 9.41284 27.2589C9.41284 28.6162 10.4948 29.7165 11.8294 29.7165Z" fill="#93D94E"/>
<path d="M29.7613 29.7165C31.0959 29.7165 32.1778 28.6162 32.1778 27.2589C32.1778 25.9016 31.0959 24.8013 29.7613 24.8013C28.4266 24.8013 27.3447 25.9016 27.3447 27.2589C27.3447 28.6162 28.4266 29.7165 29.7613 29.7165Z" fill="#93D94E"/>
</svg>
