<svg width="97" height="18" viewBox="0 0 97 18" fill="none" xmlns="http://www.w3.org/2000/svg">
<path d="M87.5138 11.1441C87.5138 13.1281 87.8578 14.5841 88.5458 15.5121C89.2498 16.4401 90.1698 16.9041 91.3058 16.9041C92.9058 16.9041 94.3298 16.6641 95.5778 16.1841L95.6498 16.3521C94.3698 16.8481 92.9218 17.0961 91.3058 17.0961C89.7058 17.0961 88.4018 16.6161 87.3938 15.6561C86.3858 14.6961 85.8818 13.2161 85.8818 11.2161C85.8818 9.21605 86.4098 7.66405 87.4658 6.56005C88.5218 5.45605 89.8658 4.90405 91.4978 4.90405C92.8098 4.90405 93.9138 5.29605 94.8098 6.08005C95.7058 6.86405 96.1538 8.02405 96.1538 9.56005C96.1538 9.64005 96.1538 9.72005 96.1538 9.80005H87.5858C87.5378 10.2321 87.5138 10.6801 87.5138 11.1441ZM94.5218 9.60805C94.5058 8.07205 94.2098 6.93605 93.6338 6.20005C93.0578 5.46405 92.3138 5.09605 91.4018 5.09605C90.4898 5.09605 89.6738 5.49605 88.9538 6.29605C88.2498 7.09605 87.8018 8.20005 87.6098 9.60805H94.5218Z" fill="black"/>
<path d="M78.4727 5.1921V5.0001H78.9767V2.6001H80.6567V5.0001H84.3287V5.1921H80.6567V13.9281C80.6567 14.9681 80.7687 15.7201 80.9927 16.1841C81.2327 16.6481 81.7207 16.8801 82.4567 16.8801C83.2087 16.8801 83.9687 16.7281 84.7367 16.4241L84.8087 16.6161C84.0087 16.9201 83.0887 17.0721 82.0487 17.0721C81.0247 17.0721 80.2567 16.8641 79.7447 16.4481C79.2327 16.0161 78.9767 15.1681 78.9767 13.9041V5.1921H78.4727Z" fill="black"/>
<path d="M75.2048 17.0001C74.5488 17.0001 74.0448 16.8561 73.6928 16.5681C73.3568 16.2801 73.1808 15.9921 73.1648 15.7041L73.1408 15.2961V5.00006H74.8208V15.2961C74.8208 15.7601 74.9088 16.1201 75.0848 16.3761C75.2768 16.6161 75.4608 16.7441 75.6368 16.7601L75.9248 16.8081H76.6688V17.0001H75.2048ZM73.2848 2.31206C73.0928 2.12006 72.9968 1.88006 72.9968 1.59206C72.9968 1.30406 73.0928 1.06406 73.2848 0.872059C73.4768 0.664059 73.7168 0.560059 74.0048 0.560059C74.2928 0.560059 74.5328 0.664059 74.7248 0.872059C74.9328 1.06406 75.0368 1.30406 75.0368 1.59206C75.0368 1.88006 74.9328 2.12006 74.7248 2.31206C74.5328 2.50406 74.2928 2.60006 74.0048 2.60006C73.7168 2.60006 73.4768 2.50406 73.2848 2.31206Z" fill="black"/>
<path d="M59.7893 0.391952C61.6453 0.263951 63.2853 0.199951 64.7093 0.199951C68.6613 0.199951 70.6373 1.51995 70.6373 4.15995C70.6373 5.15195 70.3493 6.00795 69.7733 6.72795C69.1973 7.43195 68.2773 7.91195 67.0133 8.16795C68.2293 8.31195 69.1893 8.67995 69.8933 9.27195C70.5973 9.86395 70.9493 10.896 70.9493 12.368C70.9493 15.456 68.9733 17 65.0213 17H59.7893V0.391952ZM61.7813 16.76H65.0213C66.4453 16.76 67.4533 16.392 68.0453 15.656C68.6533 14.904 68.9573 13.76 68.9573 12.224C68.9573 10.688 68.6533 9.66395 68.0453 9.15195C67.4373 8.63995 66.5333 8.36795 65.3333 8.33595H61.7813V16.76ZM64.7093 0.439951C63.7813 0.439951 62.8053 0.495951 61.7813 0.607952V8.09595H65.3333C67.5893 7.99995 68.7173 6.70395 68.7173 4.20795C68.7173 2.99195 68.3813 2.06395 67.7093 1.42395C67.0373 0.767951 66.0373 0.439951 64.7093 0.439951Z" fill="black"/>
<path d="M56.3965 17.0001C55.7405 17.0001 55.2365 16.8561 54.8845 16.5681C54.5485 16.2801 54.3725 15.9921 54.3565 15.7041L54.3325 15.2961V7.76005C54.3325 6.49605 54.0045 5.68805 53.3485 5.33605C53.0125 5.17605 52.5965 5.09605 52.1005 5.09605C51.0765 5.09605 50.1565 5.50405 49.3405 6.32005C48.5245 7.12005 48.1165 7.84005 48.1165 8.48005V17.0001H46.4365V5.00005H48.1165V7.73605C48.3885 7.04805 48.8925 6.40805 49.6285 5.81605C50.3645 5.20805 51.1725 4.90405 52.0525 4.90405C52.9325 4.90405 53.6445 4.99205 54.1885 5.16805C54.7485 5.32805 55.1565 5.56005 55.4125 5.86405C55.8125 6.36005 56.0125 7.00005 56.0125 7.78405V15.2961C56.0125 15.7601 56.1005 16.1201 56.2765 16.3761C56.4685 16.6161 56.6605 16.7441 56.8525 16.7601L57.1165 16.8081H57.8605V17.0001H56.3965Z" fill="black"/>
<path d="M36.8185 11.1441C36.8185 13.1281 37.1625 14.5841 37.8505 15.5121C38.5545 16.4401 39.4745 16.9041 40.6105 16.9041C42.2105 16.9041 43.6345 16.6641 44.8825 16.1841L44.9545 16.3521C43.6745 16.8481 42.2265 17.0961 40.6105 17.0961C39.0105 17.0961 37.7065 16.6161 36.6985 15.6561C35.6905 14.6961 35.1865 13.2161 35.1865 11.2161C35.1865 9.21605 35.7145 7.66405 36.7705 6.56005C37.8265 5.45605 39.1705 4.90405 40.8025 4.90405C42.1145 4.90405 43.2185 5.29605 44.1145 6.08005C45.0105 6.86405 45.4585 8.02405 45.4585 9.56005C45.4585 9.64005 45.4585 9.72005 45.4585 9.80005H36.8905C36.8425 10.2321 36.8185 10.6801 36.8185 11.1441ZM43.8265 9.60805C43.8105 8.07205 43.5145 6.93605 42.9385 6.20005C42.3625 5.46405 41.6185 5.09605 40.7065 5.09605C39.7945 5.09605 38.9785 5.49605 38.2585 6.29605C37.5545 7.09605 37.1065 8.20005 36.9145 9.60805H43.8265Z" fill="black"/>
<path d="M24.842 11.1441C24.842 13.1281 25.186 14.5841 25.874 15.5121C26.578 16.4401 27.498 16.9041 28.634 16.9041C30.234 16.9041 31.658 16.6641 32.906 16.1841L32.978 16.3521C31.698 16.8481 30.25 17.0961 28.634 17.0961C27.034 17.0961 25.73 16.6161 24.722 15.6561C23.714 14.6961 23.21 13.2161 23.21 11.2161C23.21 9.21605 23.738 7.66405 24.794 6.56005C25.85 5.45605 27.194 4.90405 28.826 4.90405C30.138 4.90405 31.242 5.29605 32.138 6.08005C33.034 6.86405 33.482 8.02405 33.482 9.56005C33.482 9.64005 33.482 9.72005 33.482 9.80005H24.914C24.866 10.2321 24.842 10.6801 24.842 11.1441ZM31.85 9.60805C31.834 8.07205 31.538 6.93605 30.962 6.20005C30.386 5.46405 29.642 5.09605 28.73 5.09605C27.818 5.09605 27.002 5.49605 26.282 6.29605C25.578 7.09605 25.13 8.20005 24.938 9.60805H31.85Z" fill="black"/>
<path d="M19.8955 6.03205V5.52805C19.1755 5.81605 18.5195 6.40005 17.9275 7.28005C17.3355 8.14405 17.0235 8.96005 16.9915 9.72805V17.0001H15.3115V5.00005H16.9915V8.81605C17.2475 7.88805 17.7355 7.01605 18.4555 6.20005C19.1755 5.36805 19.9915 4.93605 20.9035 4.90405H20.9995C21.3195 4.90405 21.5835 5.01605 21.7915 5.24005C22.0155 5.44805 22.1275 5.71205 22.1275 6.03205C22.1275 6.35205 22.0155 6.61605 21.7915 6.82405C21.5835 7.03205 21.3195 7.13605 20.9995 7.13605C20.6795 7.13605 20.4155 7.03205 20.2075 6.82405C19.9995 6.61605 19.8955 6.35205 19.8955 6.03205Z" fill="black"/>
<path d="M8.57595 17.096C5.58395 17.096 3.36795 16.248 1.92795 14.552C1.41595 13.944 0.999951 13.136 0.679951 12.128C0.359951 11.12 0.199951 9.89603 0.199951 8.45603C0.199951 7.01603 0.431951 5.72803 0.895951 4.59203C1.37595 3.44002 2.02395 2.55203 2.83995 1.92803C4.42395 0.760026 6.33595 0.176025 8.57595 0.176025C9.29595 0.176025 9.99995 0.232026 10.688 0.344026C11.376 0.440026 11.888 0.544025 12.224 0.656025L12.728 0.824026L12.656 1.06403C11.408 0.632025 10.048 0.416025 8.57595 0.416025C6.87995 0.416025 5.46395 0.968025 4.32795 2.07202C3.46395 2.88802 2.85595 4.08803 2.50395 5.67203C2.29595 6.56803 2.19195 7.66403 2.19195 8.96003C2.19195 10.256 2.37595 11.456 2.74395 12.56C3.11195 13.648 3.52795 14.456 3.99195 14.984C4.47195 15.512 5.04795 15.936 5.71995 16.256C6.39195 16.56 6.92795 16.736 7.32795 16.784C7.72795 16.832 8.19995 16.856 8.74395 16.856C9.30395 16.856 10.048 16.792 10.976 16.664V11.72H8.07195V11.48H14V11.72H12.968V16.448C11.752 16.88 10.288 17.096 8.57595 17.096Z" fill="black"/>
</svg>
